<svg width="24" height="24" viewBox="0 0 24 24" fill="none" xmlns="http://www.w3.org/2000/svg">
<path id="23" fill-rule="evenodd" clip-rule="evenodd" d="M7.25811 22.2427C7.15445 22.3575 7.05063 22.4725 6.95133 22.5904C6.85397 22.7033 6.80724 22.8382 6.81114 22.984C6.81114 23.1808 6.9046 23.3775 7.07595 23.5014C7.37581 23.7164 7.80808 23.6581 8.04174 23.3848C8.21309 23.1844 8.38833 22.9876 8.56746 22.7945C8.62697 22.7329 8.69151 22.6761 8.75501 22.6202C8.77048 22.6066 8.78588 22.593 8.80112 22.5795C8.8907 22.5102 8.98027 22.441 9.07763 22.379C9.26066 22.2697 9.44369 22.175 9.63451 22.0839C9.97331 21.9308 10.3238 21.8032 10.6782 21.6866C11.0598 21.57 11.4454 21.468 11.8387 21.3878C12.4462 21.2748 13.0654 21.2129 13.6807 21.1655L13.6846 21.1655C13.6897 21.1655 13.6966 21.1655 13.7029 21.1645C14.2575 21.1331 14.8122 21.1512 15.3669 21.1728C15.9589 21.2238 16.543 21.2748 17.1194 21.3805C17.5283 21.4607 17.9294 21.5627 18.3227 21.6866C18.938 21.8907 19.5221 22.1531 20.1102 22.4191C20.5308 22.6232 20.9514 22.8273 21.368 23.035C21.4221 23.0619 21.4763 23.0887 21.5306 23.1155C21.8518 23.2742 22.1753 23.4341 22.4818 23.618C22.4977 23.6379 22.5137 23.6578 22.5296 23.6765C22.5371 23.6853 22.5445 23.6938 22.5519 23.7019C22.77 23.9351 23.0387 24.0554 23.3736 23.9752C23.6034 23.9169 23.7903 23.7383 23.8526 23.5233C23.9149 23.3229 23.8604 23.1261 23.7358 22.9584C23.6813 22.8819 23.6151 22.8163 23.545 22.7544C23.5138 22.6961 23.4788 22.6378 23.4476 22.5795C23.1314 21.9164 22.8674 21.2325 22.6046 20.5515L22.587 20.5059C22.4234 20.0431 22.2793 19.5803 22.1703 19.1065C22.0924 18.7275 22.0418 18.3449 22.0106 17.9586C21.9598 17.1502 21.9893 16.3392 22.0188 15.5279C22.0254 15.3445 22.0321 15.1611 22.0379 14.9777C22.0651 14.2488 22.0963 13.52 22.1274 12.7911C22.1664 12.2664 22.2209 11.7489 22.326 11.2351C22.3806 11.0018 22.4468 10.7759 22.5247 10.55C22.5909 10.386 22.661 10.2256 22.7427 10.0653C22.8011 9.96687 22.8596 9.87214 22.9258 9.77739C22.9764 9.7118 23.0309 9.6462 23.0893 9.58061C23.0995 9.57105 23.1098 9.56108 23.1201 9.55098C23.1414 9.53032 23.1631 9.5091 23.1867 9.48951C23.2373 9.44943 23.2879 9.41299 23.3425 9.37654C23.3585 9.36651 23.3746 9.35819 23.392 9.3492C23.3999 9.34515 23.408 9.34097 23.4164 9.33643C23.471 9.31457 23.5294 9.29271 23.5839 9.27449C24.0356 9.12509 24.1369 8.52378 23.802 8.22496C23.689 8.12293 23.5489 8.05367 23.3931 8.03545C23.2451 8.01724 23.101 8.0464 22.9764 8.10834C21.9833 8.47276 21.4226 9.46035 21.1344 10.3677C20.8657 11.2169 20.7722 12.1097 20.7333 12.9916C20.7021 13.7496 20.671 14.5039 20.6476 15.2619C20.6425 15.4195 20.6366 15.5774 20.6308 15.7355C20.592 16.7795 20.553 17.8306 20.7255 18.8624C20.7691 19.1217 20.8233 19.3784 20.8867 19.6326C20.7299 19.4513 20.5725 19.2709 20.4139 19.092C19.9388 18.5563 19.4598 18.0242 18.973 17.4958C18.4239 16.9091 17.871 16.3333 17.3102 15.7575C16.3717 14.7918 15.402 13.848 14.4245 12.9187C13.6757 12.2043 12.9232 11.4928 12.1707 10.7813C10.716 9.40592 9.26103 8.03025 7.83145 6.63244C7.47023 6.27984 7.11247 5.92723 6.75471 5.57462C6.57635 5.39881 6.39799 5.22303 6.2192 5.04723C6.09034 4.92076 5.96148 4.79351 5.83239 4.66601L5.8315 4.66515C5.48103 4.31905 5.1289 3.97129 4.77052 3.63328L4.76439 3.6274L4.76143 3.6246C4.25825 3.1465 3.75884 2.67203 3.25175 2.20111C2.99083 1.9606 2.72991 1.72005 2.47289 1.47954C2.36522 1.37772 2.25655 1.27654 2.14776 1.17524C1.88665 0.932112 1.62484 0.688335 1.37469 0.433659C1.36301 0.422716 1.35522 0.411817 1.34354 0.400874C1.2384 0.16764 0.993053 -1.00567e-06 0.708765 -1.01809e-06L0.693186 -1.01877e-06C0.311539 0.00729448 0.0155811 0.287905 0.00389859 0.645029C0.00389859 0.648677 0.00389859 0.65595 -2.86725e-08 0.65595C-3.83892e-08 0.878241 0.128519 1.05318 0.276504 1.21352L0.272606 1.20988C0.28039 1.21717 0.288187 1.22809 0.295971 1.23539L0.297277 1.23677C0.297932 1.23752 0.298466 1.23828 0.299002 1.23904C0.300735 1.24146 0.30246 1.24388 0.307653 1.24631C0.313072 1.24884 0.316614 1.25316 0.319586 1.25676C0.320808 1.2583 0.322092 1.25983 0.323233 1.2609L0.315449 1.2536C0.643627 1.60285 1.00104 1.9322 1.35696 2.26016L1.35724 2.26043L1.39639 2.29653C1.4581 2.35338 1.51971 2.41021 1.5811 2.46713C1.73366 2.60988 1.88698 2.75047 2.04005 2.89082L2.04084 2.89156C2.23136 3.06625 2.42147 3.24056 2.60919 3.41826C3.36468 4.13616 4.11628 4.85407 4.86009 5.58291C5.25312 5.96637 5.64316 6.35208 6.03326 6.73783L6.03475 6.7393C6.64141 7.33917 7.24818 7.93919 7.86649 8.53108C8.8907 9.51137 9.9149 10.4917 10.9469 11.461L11.2471 11.7438L11.2495 11.7461C12.2583 12.6965 13.2657 13.6455 14.257 14.6096C14.8217 15.1599 15.3825 15.7138 15.9433 16.2714C16.23 16.5601 16.5121 16.8517 16.7944 17.1434C16.9646 17.3193 17.1349 17.4953 17.3063 17.6707C18.0813 18.5052 18.8523 19.3434 19.5961 20.1961C19.8604 20.4989 20.1228 20.8017 20.382 21.1069C20.0427 20.9519 19.6996 20.8051 19.3508 20.6736C18.5564 20.3747 17.7308 20.1524 16.8818 20.0358C16.8247 20.0274 16.7672 20.0181 16.7096 20.0088C16.5667 19.9857 16.4225 19.9624 16.2782 19.952C16.173 19.9429 16.0689 19.9347 15.9647 19.9265C15.8605 19.9183 15.7564 19.9101 15.6512 19.901C15.2696 19.8718 14.8801 19.8536 14.4985 19.8536C13.9572 19.8536 13.4198 19.8828 12.8824 19.9411C12.3722 19.9957 11.8659 20.054 11.3636 20.1634C10.8378 20.2763 10.3199 20.4257 9.81365 20.6079C9.38138 20.7646 8.953 20.9359 8.55578 21.1619C8.13909 21.3951 7.76135 21.683 7.44592 22.0328C7.38408 22.1031 7.32113 22.1728 7.25811 22.2427ZM13.7029 21.1645C13.7061 21.1639 13.7092 21.1631 13.7118 21.1619C13.7041 21.1619 13.6924 21.1619 13.6846 21.1655C13.6907 21.1652 13.6968 21.1648 13.7029 21.1645Z" fill="#141513"/>
</svg>
