<svg width="16" height="16" viewBox="0 0 16 16" fill="none" xmlns="http://www.w3.org/2000/svg">
<g id="Iconly/Curved/Profile">
<g id="Profile">
<path id="Stroke 1" fill-rule="evenodd" clip-rule="evenodd" d="M7.89636 14.4413C5.43515 14.4413 3.33333 14.0583 3.33333 12.5244C3.33333 10.9905 5.42181 9.57458 7.89636 9.57458C10.3576 9.57458 12.4594 10.9768 12.4594 12.5107C12.4594 14.0439 10.3709 14.4413 7.89636 14.4413Z" stroke="#3A3C39" stroke-linecap="round" stroke-linejoin="round"/>
<path id="Stroke 3" fill-rule="evenodd" clip-rule="evenodd" d="M7.89153 7.44907C9.50668 7.44907 10.8158 6.13998 10.8158 4.52482C10.8158 2.90967 9.50668 1.59998 7.89153 1.59998C6.27637 1.59998 4.96668 2.90967 4.96668 4.52482C4.96122 6.13452 6.26122 7.44361 7.87092 7.44907C7.87819 7.44907 7.88486 7.44907 7.89153 7.44907Z" stroke="#3A3C39" stroke-linecap="round" stroke-linejoin="round"/>
</g>
</g>
</svg>
